<?xml version="1.0" standalone="no"?>
<!DOCTYPE svg PUBLIC "-//W3C//DTD SVG 20010904//EN"
 "http://www.w3.org/TR/2001/REC-SVG-20010904/DTD/svg10.dtd">
<svg version="1.0" xmlns="http://www.w3.org/2000/svg"
 width="514.000000pt" height="514.000000pt" viewBox="0 0 514.000000 514.000000"
 preserveAspectRatio="xMidYMid meet">
<metadata>
Created by potrace 1.11, written by Peter Selinger 2001-2013
</metadata>
<g transform="translate(0.000000,514.000000) scale(0.100000,-0.100000)"
fill="#000000" stroke="none">
<path d="M191 5112 c-61 -23 -142 -106 -164 -168 -16 -46 -17 -183 -17 -2375
l0 -2326 21 -48 c33 -75 103 -138 180 -164 l65 -21 2309 2 2310 3 57 28 c73
36 109 72 145 145 l28 57 3 2305 2 2305 -20 69 c-17 54 -31 78 -69 116 -26 26
-69 57 -96 69 l-48 21 -2331 -1 c-2156 0 -2334 -2 -2375 -17z"/>
</g>
</svg>
